# xmcd CD database file
#
# Track frame offsets:
#	150
#	15662
#	34462
#	52062
#	67412
#	78500
#	92450
#	110762
#	125025
#	142725
#	156337
#	171900
#	185925
#	198612
#	213712
#	228825
#
# Disc length: 3245 seconds
#
# Revision: 2
# Processed by: cddbd v1.5.1PL0 Copyright (c) Steve Scherf et al.
# Submitted via: CDex 1.51
#
DISCID=f70cab10
DTITLE=Various Artist - American Style The Best Of New Country Music CD 1
DYEAR=1997
DGENRE=Country
TTITLE0=Patty Loveless - You Can Feel Bad
TTITLE1=Rodney Crowell - Oh King Richard
TTITLE2=Joe Deffie - Bigger Than The Beatles
TTITLE3=Exile - Shelter From The Night
TTITLE4=Collin Raye - Every Second
TTITLE5=Doug Stone - Addicted To A Dollar
TTITLE6=Larry Stewart - Heart Like A Hurricane
TTITLE7=Wade Hayes - On A Good Night
TTITLE8=David Allen Coe - Son Of The South
TTITLE9=Darden Smith - Never Let A Day Go By
TTITLE10=James House - This Is Me Missing You
TTITLE11=Larry Boone - To Be With You
TTITLE12=Ken Mellons - Lookin' In The Same Direction
TTITLE13=The Shooters - Remote Control
TTITLE14=Marty Stuart - Mirrors Don't Lie
TTITLE15=Rick Trevino - Bobbie Ann Mason
EXTD=YEAR: 1997
EXTT0=
EXTT1=
EXTT2=
EXTT3=
EXTT4=
EXTT5=
EXTT6=
EXTT7=
EXTT8=
EXTT9=
EXTT10=
EXTT11=
EXTT12=
EXTT13=
EXTT14=
EXTT15=
PLAYORDER=
